<svg xmlns="http://www.w3.org/2000/svg" width="22.296" height="22.296" viewBox="0 0 22.296 22.296">
  <path id="Icon_awesome-linkedin" data-name="Icon awesome-linkedin" d="M20.7,2.25H1.588A1.6,1.6,0,0,0,0,3.858V22.939a1.6,1.6,0,0,0,1.588,1.608H20.7A1.6,1.6,0,0,0,22.3,22.939V3.858A1.6,1.6,0,0,0,20.7,2.25ZM6.739,21.361h-3.3V10.721h3.31v10.64ZM5.086,9.267A1.916,1.916,0,1,1,7,7.351,1.917,1.917,0,0,1,5.086,9.267Zm14.04,12.094h-3.3V16.185c0-1.234-.025-2.822-1.717-2.822-1.722,0-1.986,1.344-1.986,2.732v5.265h-3.3V10.721h3.17v1.453h.045a3.481,3.481,0,0,1,3.13-1.717c3.344,0,3.967,2.2,3.967,5.071Z" transform="translate(0 -2.25)" fill="#0058d0"/>
</svg>
